{
  "accessors": [
    {
      "bufferView": 2,
      "componentType": 5126,
      "count": 39979,
      "max": [
        11.313248634338379,
        11.823451042175293,
        28.213607788085938
      ],
      "min": [
        -11.606328964233398,
        -4.347869396209717,
        -0.5022216439247131
      ],
      "type": "VEC3"
    },
    {
      "bufferView": 2,
      "byteOffset": 479748,
      "componentType": 5126,
      "count": 39979,
      "max": [
        0.9999207854270935,
        0.9999844431877136,
        0.9999714493751526
      ],
      "min": [
        -0.9999998211860657,
        -0.9999812245368958,
        -0.9998515844345093
      ],
      "type": "VEC3"
    },
    {
      "bufferView": 3,
      "componentType": 5126,
      "count": 39979,
      "max": [
        0.9986621737480164,
        0.9999995827674866,
        0.999975323677063,
        1.0
      ],
      "min": [
        -0.999977707862854,
        -1.0,
        -0.9999983906745911,
        -1.0
      ],
      "type": "VEC4"
    },
    {
      "bufferView": 1,
      "componentType": 5126,
      "count": 39979,
      "max": [
        0.9997180104255676,
        0.9987789988517761
      ],
      "min": [
        0.00024399999529123306,
        0.00024500000290572643
      ],
      "type": "VEC2"
    },
    {
      "bufferView": 0,
      "componentType": 5125,
      "count": 150012,
      "type": "SCALAR"
    },
    {
      "bufferView": 2,
      "byteOffset": 959496,
      "componentType": 5126,
      "count": 6328,
      "max": [
        4.3725504875183105,
        13.034476280212402,
        8.395543098449707
      ],
      "min": [
        -4.593271255493164,
        6.5482001304626465,
        6.2569122314453125
      ],
      "type": "VEC3"
    },
    {
      "bufferView": 2,
      "byteOffset": 1035432,
      "componentType": 5126,
      "count": 6328,
      "max": [
        0.9995864629745483,
        0.9390116333961487,
        0.9996638298034668
      ],
      "min": [
        -0.9995864629745483,
        -0.9993095993995667,
        -0.9999410510063171
      ],
      "type": "VEC3"
    },
    {
      "bufferView": 0,
      "byteOffset": 600048,
      "componentType": 5125,
      "count": 37944,
      "type": "SCALAR"
    }
  ],
  "asset": {
    "extras": {
      "author": "Rigsters (https://sketchfab.com/rigsters)",
      "license": "CC-BY-4.0 (http://creativecommons.org/licenses/by/4.0/)",
      "source": "https://sketchfab.com/3d-models/ganesha-wooden-mask-2beef44155d9435a8a71f5bfcdc21a9b",
      "title": "Ganesha wooden mask"
    },
    "generator": "Sketchfab-12.68.0",
    "version": "2.0"
  },
  "bufferViews": [
    {
      "buffer": 0,
      "byteLength": 751824,
      "name": "floatBufferViews",
      "target": 34963
    },
    {
      "buffer": 0,
      "byteLength": 319832,
      "byteOffset": 751824,
      "byteStride": 8,
      "name": "floatBufferViews",
      "target": 34962
    },
    {
      "buffer": 0,
      "byteLength": 1111368,
      "byteOffset": 1071656,
      "byteStride": 12,
      "name": "floatBufferViews",
      "target": 34962
    },
    {
      "buffer": 0,
      "byteLength": 639664,
      "byteOffset": 2183024,
      "byteStride": 16,
      "name": "floatBufferViews",
      "target": 34962
    }
  ],
  "buffers": [
    {
      "byteLength": 2822688,
      "uri": "scene.bin"
    }
  ],
  "extensionsUsed": [
    "KHR_materials_clearcoat",
    "KHR_materials_transmission"
  ],
  "images": [
    {
      "uri": "textures/ganesh_low_baseColor.jpeg"
    },
    {
      "uri": "textures/ganesh_low_metallicRoughness.png"
    },
    {
      "uri": "textures/ganesh_low_normal.png"
    }
  ],
  "materials": [
    {
      "doubleSided": true,
      "extensions": {
        "KHR_materials_clearcoat": {
          "clearcoatFactor": 0.6,
          "clearcoatNormalTexture": {
            "index": 2,
            "scale": 0.5
          },
          "clearcoatRoughnessFactor": 0.4
        }
      },
      "name": "ganesh_low",
      "normalTexture": {
        "index": 2,
        "scale": 0.5
      },
      "pbrMetallicRoughness": {
        "baseColorTexture": {
          "index": 0
        },
        "metallicFactor": 0.0,
        "metallicRoughnessTexture": {
          "index": 1
        }
      }
    },
    {
      "alphaMode": "BLEND",
      "doubleSided": true,
      "extensions": {
        "KHR_materials_clearcoat": {
          "clearcoatFactor": 0.47599539092047816,
          "clearcoatRoughnessFactor": 0.10508002043074828
        },
        "KHR_materials_transmission": {
          "transmissionFactor": 1.0
        }
      },
      "name": "ganesh_low_tusks",
      "pbrMetallicRoughness": {
        "baseColorFactor": [
          0.667162779707386,
          0.018326801914371513,
          0.018326801914371513,
          0.25
        ],
        "roughnessFactor": 0.0
      }
    }
  ],
  "meshes": [
    {
      "name": "ganesh_low_ganesh_low_0",
      "primitives": [
        {
          "attributes": {
            "NORMAL": 1,
            "POSITION": 0,
            "TANGENT": 2,
            "TEXCOORD_0": 3
          },
          "indices": 4,
          "material": 0,
          "mode": 4
        }
      ]
    },
    {
      "name": "ganesh_low_tusks_ganesh_low_tusks_0",
      "primitives": [
        {
          "attributes": {
            "NORMAL": 6,
            "POSITION": 5
          },
          "indices": 7,
          "material": 1,
          "mode": 4
        }
      ]
    }
  ],
  "nodes": [
    {
      "children": [
        1
      ],
      "matrix": [
        -0.9999053478240967,
        0.01375249121338129,
        0.0003777339006774158,
        0.0,
        -0.013752492144703865,
        -0.9999054074287415,
        -2.2202360115491736e-16,
        0.0,
        0.00037769819027744234,
        -5.194799996610655e-06,
        0.9999999403953552,
        0.0,
        -0.48730969429016113,
        -9.509031295776369,
        9.513260841369627,
        1.0
      ],
      "name": "Sketchfab_model"
    },
    {
      "children": [
        2
      ],
      "matrix": [
        1.0,
        0.0,
        0.0,
        0.0,
        0.0,
        0.0,
        1.0,
        0.0,
        0.0,
        -1.0,
        0.0,
        0.0,
        0.0,
        0.0,
        0.0,
        1.0
      ],
      "name": "bbc2a47a5d894b34aff949136009d4bb.fbx"
    },
    {
      "children": [
        3,
        5
      ],
      "name": "RootNode"
    },
    {
      "children": [
        4
      ],
      "name": "ganesh_low"
    },
    {
      "mesh": 0,
      "name": "ganesh_low_ganesh_low_0"
    },
    {
      "children": [
        6
      ],
      "name": "ganesh_low_tusks"
    },
    {
      "mesh": 1,
      "name": "ganesh_low_tusks_ganesh_low_tusks_0"
    }
  ],
  "samplers": [
    {
      "magFilter": 9729,
      "minFilter": 9987,
      "wrapS": 10497,
      "wrapT": 10497
    }
  ],
  "scene": 0,
  "scenes": [
    {
      "name": "Sketchfab_Scene",
      "nodes": [
        0
      ]
    }
  ],
  "textures": [
    {
      "sampler": 0,
      "source": 0
    },
    {
      "sampler": 0,
      "source": 1
    },
    {
      "sampler": 0,
      "source": 2
    }
  ]
}
